<?xml version="1.0" encoding="UTF-8"?>
<!-- Generated by Pixelmator Pro 3.7 -->
<svg width="700" height="700" viewBox="0 0 700 700" xmlns="http://www.w3.org/2000/svg">
    <path id="Path-copy" fill="#000000" stroke="none" d="M 530.5 488.299988 L 530.498047 488.306152 C 536.060242 490.568604 542.080139 491.697113 548.099976 491.600006 C 552.280518 491.600006 556.460999 491.05835 560.555725 489.975098 L 560.5 489.799988 C 570.599976 486.899994 578.299988 480.200012 583.700012 470.100006 C 583.799988 470 583.900024 469.799988 584 469.600006 C 590.200012 457.700012 593.299988 441.100006 593.299988 420.600006 C 593.299988 417.100006 593.299988 413.5 593.200012 410 L 593.099976 410 L 593.099976 409.399994 C 591 334.200012 567.599976 269.200012 533.5 234.200012 L 533.099976 233.799988 L 533.153259 233.752411 C 516.264038 216.58194 496.780701 206.799988 475.900024 206.799988 C 456.600006 206.799988 439.100006 216.100006 421 234.899994 L 420.947205 234.952789 L 421 235 L 420.600006 235.399994 C 409.5 247 398.200012 262.100006 386.100006 280.799988 C 394.899994 293.899994 404.200012 308.299988 413.799988 323.899994 L 414.100006 324.399994 L 414.078949 324.431488 L 449.299988 383.100006 C 476.299988 426.5 493.5 453.399994 507.400024 469.5 C 507.519318 469.559662 507.603027 469.654907 507.672394 469.743286 C 507.721191 469.777252 507.766266 469.799988 507.799988 469.799988 L 507.753845 469.8479 C 507.76947 469.867126 507.784729 469.884735 507.799988 469.899994 C 516 479.399994 523.200012 485.100006 530.5 488.299988 Z M 372.821075 384.968445 L 368.399994 377.600006 C 361.354614 365.764526 354.676147 354.752991 348.320557 344.51651 C 330.127014 376.605347 303.899994 422.899994 303.899994 422.899994 C 240.5 533.5 204.899994 556.799988 155.300003 556.799988 C 122.504013 556.799988 96.106468 544.703003 77.306908 522.90802 L 77.199997 523 C 77 522.900024 76.900002 522.700012 76.800003 522.599976 C 63.199997 506.600006 53.699997 485.5 48.900002 460.100006 C 48.900002 460 48.800003 459.799988 48.800003 459.600006 C 46.300003 446 45.099998 432.299988 45.199997 418.600006 L 45.199997 418 C 45.199997 394.5 47.5 371.100006 52 348 C 52 347.899994 52.099998 347.700012 52.099998 347.5 C 60.296535 305.517761 75.487137 266.732849 95.8741 235.040253 L 95.800003 235 C 95.899994 234.899994 96 234.700012 96.100006 234.600006 C 127.199997 186.599976 170.100006 155.200012 218.700012 155 C 218.898788 155 219.09758 155 219.099991 154.901794 L 219.098785 155 L 219.299988 155 C 267.600006 155 308.100006 178.399963 356.399994 239.899994 C 366 252 375.799988 265.600006 386.100006 280.799988 C 375.799988 265.5 365.899994 251.899994 356.399994 239.799988 C 365.5 227.399994 375.299988 215.5 385.700012 204.200012 L 386.100006 203.799988 C 413.5 174.799988 444 155 480.099976 155 C 514.299988 155 546.400024 170.899963 573.299988 198 C 573.400024 198.200012 573.599976 198.299988 573.700012 198.399994 L 573.646851 198.447479 C 619.020996 244.453583 649.500488 322.329956 651 409.399994 L 651.099976 409.399994 L 651.099976 410 C 651.099976 412 651.099976 414.100006 651 416.100006 C 651 456.799988 642.799988 490.299988 627.099976 514.400024 C 627 514.599976 626.900024 514.700012 626.799988 514.900024 C 626.400024 515.400024 626.099976 516 625.700012 516.5 C 625.200012 517.299988 624.599976 518 624.099976 518.799988 C 615.599976 530.799988 604.299988 540.5 591.200012 547.099976 L 590 547.700012 C 589.299988 548 588.5 548.400024 587.799988 548.700012 C 585.502441 549.710938 583.204956 550.637329 580.829834 551.47937 L 580.900024 551.700012 C 569.900024 555.400024 558.400024 557.200012 546.799988 557.099976 C 533.299988 557.099976 521.200012 555.400024 509.900024 551.5 L 509.919556 551.438416 C 492.716156 545.602295 477.45163 534.942444 461.5 518 L 461.100006 517.599976 L 461.149048 517.549072 L 461.100006 517.5 C 442 497.100006 422.299988 467.799988 398.100006 427.399994 L 373.100006 385.5 L 372.799988 385 L 372.821075 384.968445 Z M 317.271332 297.043884 C 276.628357 238.995483 250.116318 220.700012 218.399994 220.700012 L 217.899994 220.700012 L 217.901215 220.600006 L 217.799988 220.600006 C 193.701904 220.899963 171.103577 238.297241 153.004288 265.493561 L 153.199997 265.600006 C 153.100006 265.700012 153 265.899994 152.899994 266 C 136 291.600006 122.899994 325.700012 116.100006 362.600006 C 116.100006 362.696747 116.006416 362.887054 116.000313 363.080566 C 116 363.11676 116 363.15625 116 363.200012 C 112.600006 381.799988 110.800003 400.799988 110.800003 419.799988 L 110.800003 424.5 C 111 431.299988 111.600006 438.100006 112.800003 444.899994 C 112.800003 445 112.899994 445.200012 112.899994 445.399994 C 115.49913 459.795166 120.596603 470.992523 127.692894 478.792175 L 127.800003 478.700012 L 128.199997 479.100006 C 135.800003 487.299988 145.800003 491.5 157.699997 491.5 C 186.300003 491.5 204 473.5 255.399994 393.100006 C 255.399994 393.100006 278.688477 356.118317 317.271332 297.043884 Z"/>
</svg>
