<?xml version="1.0" encoding="UTF-8"?>
<!-- Generated by Pixelmator Pro 3.7 -->
<svg width="700" height="700" viewBox="0 0 700 700" xmlns="http://www.w3.org/2000/svg">
    <text id="ChatGPT" xml:space="preserve" x="-732785" y="-732782" font-family="Times New Roman" font-size="878.04878" fill="#000000" fill-opacity="0">ChatGPT</text>
    <path id="Path" fill="#000000" stroke="none" d="M 566.820129 304.219147 C 572.500793 287.386627 574.470703 269.552856 572.599609 251.909119 C 570.728455 234.26535 565.059204 217.219849 555.970703 201.913116 C 542.49884 178.760864 521.919983 160.430359 497.204712 149.566589 C 472.489502 138.703003 444.914948 135.867737 418.459045 141.470093 C 406.526489 128.201599 391.860016 117.601013 375.438904 110.377991 C 359.017822 103.15509 341.22345 99.476196 323.245392 99.58783 C 296.197876 99.523376 269.828125 107.93573 247.937988 123.612122 C 226.047852 139.28833 209.769043 161.41864 201.447906 186.812256 C 183.827744 190.371124 167.181274 197.602875 152.622986 208.023499 C 138.064713 218.444122 125.930565 231.812897 117.032875 247.235382 C 103.453041 270.324097 97.656395 297.070374 100.478874 323.620361 C 103.301369 350.169098 114.597084 375.146637 132.737045 394.95163 C 127.057182 411.784149 125.08683 429.617889 126.957863 447.261627 C 128.828888 464.905365 134.498108 481.950378 143.586075 497.257874 C 157.059677 520.40918 177.638474 538.737854 202.353836 549.601624 C 227.068954 560.465393 254.643494 563.301636 281.098145 557.700378 C 293.030731 570.969116 307.698456 581.569153 324.118286 588.792908 C 340.539368 596.015381 358.33371 599.694153 376.311798 599.582886 C 403.37323 599.652893 429.756927 591.236633 451.654633 575.550415 C 473.55368 559.864136 489.835419 537.717896 498.149811 512.309082 C 515.769409 508.750366 532.415955 501.519165 546.974731 491.09787 C 561.532288 480.677887 573.66626 467.307892 582.564697 451.885376 C 596.127747 428.799103 601.91095 402.059143 599.080811 375.520386 C 596.251892 348.981628 584.955261 324.01535 566.820129 304.219147 Z M 376.352325 566.896606 C 354.137878 566.927917 332.62146 559.251648 315.563141 545.21167 C 316.332123 544.797913 317.681366 544.067871 318.560547 543.536621 L 419.458618 486.030396 C 421.991058 484.609131 424.094055 482.547852 425.550934 480.057861 C 427.009125 477.567871 427.767944 474.740356 427.750214 471.866638 L 427.750214 331.512878 L 470.397919 355.810364 C 470.62085 355.92038 470.813446 356.082886 470.959106 356.284119 C 471.103546 356.485382 471.194763 356.719116 471.22641 356.962891 L 471.22641 473.196655 C 471.194763 498.022888 461.191589 521.824097 443.408661 539.386658 C 425.625671 556.950378 401.512238 566.842896 376.352325 566.896606 Z M 172.317276 480.915375 C 161.190414 461.945374 157.180161 439.719116 160.988602 418.125366 C 161.737823 418.569122 163.046494 419.35788 163.985626 419.89035 L 264.883545 477.395386 C 267.398285 478.845367 270.25885 479.610413 273.171356 479.610413 C 276.082642 479.610413 278.943176 478.845367 281.457916 477.395386 L 404.643921 407.214111 L 404.643921 455.809143 C 404.657837 456.056641 404.609711 456.305359 404.503296 456.530365 C 404.396881 456.755371 404.235962 456.95163 404.034546 457.100372 L 302.036865 515.206604 C 280.220215 527.605347 254.309036 530.956665 229.990341 524.527893 C 205.671112 518.099121 184.929916 502.414124 172.317276 480.915375 Z M 145.773956 263.577881 C 156.852539 244.582886 174.350845 230.040375 195.204163 222.49411 C 195.204163 223.351624 195.154251 224.870361 195.154251 225.924103 L 195.154251 340.935364 C 195.13652 343.807861 195.89447 346.632874 197.349976 349.121643 C 198.805481 351.609131 200.906067 353.669128 203.436005 355.090363 L 326.621582 425.262878 L 283.975189 449.559143 C 283.764862 449.696625 283.522919 449.779114 283.272095 449.801636 C 283.02124 449.824127 282.767853 449.7854 282.536011 449.687866 L 180.528961 391.531616 C 158.750183 379.086609 142.861313 358.62912 136.346207 334.642883 C 129.831116 310.657867 133.221497 285.101624 145.773956 263.577881 Z M 496.162109 344.030365 L 372.974854 273.849121 L 415.622559 249.561615 C 415.832855 249.425354 416.074829 249.341614 416.325653 249.319122 C 416.576477 249.2966 416.828613 249.336609 417.060425 249.434113 L 519.068237 307.540375 C 534.696289 316.447876 547.428284 329.562866 555.775635 345.351624 C 564.121704 361.140381 567.736023 378.947906 566.196838 396.690369 C 564.657593 414.432861 558.025574 431.375366 547.081177 445.534119 C 536.135437 459.692871 521.328369 470.481628 504.392914 476.636658 C 504.392914 475.769135 504.392914 474.251648 504.392914 473.196655 L 504.392914 358.185364 C 504.416992 355.317871 503.667023 352.495361 502.220276 350.007874 C 500.773499 347.520386 498.683167 345.457855 496.162109 344.030365 Z M 538.608398 280.995361 C 537.859619 280.541626 536.550964 279.762878 535.612244 279.231628 L 434.712921 221.725372 C 432.198181 220.277893 429.338867 219.51413 426.426331 219.51413 C 423.515106 219.51413 420.654541 220.277893 418.139801 221.725372 L 294.953796 291.907867 L 294.953796 243.312866 C 294.93988 243.064117 294.988007 242.81662 295.094421 242.591614 C 295.200836 242.366608 295.361725 242.170349 295.563202 242.021637 L 397.560852 183.963501 C 413.186371 175.073242 431.055481 170.757385 449.076599 171.52063 C 467.097748 172.283997 484.524689 178.094971 499.321655 188.273865 C 514.117371 198.452759 525.669861 212.578491 532.627502 228.999084 C 539.585083 245.419128 541.660217 263.454102 538.608398 280.995361 Z M 271.76767 367.609131 L 229.109863 343.311615 C 228.886902 343.20163 228.693069 343.039124 228.548645 342.83786 C 228.404221 342.636627 228.311737 342.402863 228.281342 342.157867 L 228.281342 225.924103 C 228.29274 208.122223 233.443802 190.691345 243.130249 175.672363 C 252.817947 160.653381 266.640686 148.667725 282.980682 141.118347 C 299.320679 133.56897 317.501465 130.768372 335.395905 133.044128 C 353.291595 135.319885 370.15863 142.578003 384.024445 153.96875 C 383.255432 154.382751 381.916382 155.112244 381.027039 155.64447 L 280.128998 213.149994 C 277.596527 214.570099 275.494812 216.629852 274.036621 219.117859 C 272.579742 221.605347 271.820892 224.431641 271.837372 227.304108 L 271.76767 367.609131 Z M 294.933533 318.324127 L 349.798859 287.057861 L 404.662903 318.304138 L 404.662903 380.81665 L 349.798859 412.064117 L 294.933533 380.81665 L 294.933533 318.324127 Z"/>
</svg>
